# xmcd
#
# Track frame offsets: 
#        150
#        16463
#        29176
#        43424
#        62322
#        74495
#        88245
#        109005
#        126256
#        141977
#        156887
#
# Disc length: 2287 seconds
#
# Revision: 1
# Processed by: cddbd v1.5.2PL0 Copyright (c) Steve Scherf et al.
# Submitted via: ExactAudioCopy v1.0b3
#
DISCID=a508ed0b
DTITLE=Various Artist - Beautiful Ballads CD2
DYEAR=2011
DGENRE=Ballad
TTITLE0=The Righteous Brothers - Unchained Melody
TTITLE1=Dusty Springfield - You Don't Have To Say You Love Me
TTITLE2=Elvis Costello and London Symphony Orchestra - She
TTITLE3=Lionel Richie - Hello
TTITLE4=The Platters - The Great Pretender
TTITLE5=Diana Ross and Marvin Gaye - You Are Everything
TTITLE6=Kim Wilde - Four Letter Word
TTITLE7=Vanessa Williams - Save The Best For Last
TTITLE8=The Pussycat Dolls - Stickwitu
TTITLE9=Gabrielle - Out Of Reach (Bridget Jone's Diary Soundtrack Vers
TTITLE9=ion)
TTITLE10=Mama Cass - Dream A Little Dream Of Me
EXTD=
EXTT0=
EXTT1=
EXTT2=
EXTT3=
EXTT4=
EXTT5=
EXTT6=
EXTT7=
EXTT8=
EXTT9=
EXTT10=
PLAYORDER=
